<mxfile host="app.diagrams.net" modified="2023-09-28T00:49:27.593Z" agent="Mozilla/5.0 (Macintosh; Intel Mac OS X 10_15_7) AppleWebKit/537.36 (KHTML, like Gecko) Chrome/116.0.0.0 Safari/537.36" etag="pz8iMRUhp6KLs74yHKA-" version="21.8.2" type="github">
  <diagram name="Page-1" id="yjQ_pkraQ5ckAFHhmBXi">
    <mxGraphModel dx="539" dy="638" grid="1" gridSize="10" guides="1" tooltips="1" connect="1" arrows="1" fold="1" page="1" pageScale="1" pageWidth="850" pageHeight="1100" math="0" shadow="0">
      <root>
        <mxCell id="0" />
        <mxCell id="1" parent="0" />
        <mxCell id="Li19kPZ4yMoS6sR5QcYd-1" value="&lt;font style=&quot;font-size: 27px;&quot;&gt;&lt;b&gt;LIGHTS OUT DIAGRAM&lt;/b&gt;&lt;/font&gt;" style="text;html=1;strokeColor=none;fillColor=none;align=center;verticalAlign=middle;whiteSpace=wrap;rounded=0;" vertex="1" parent="1">
          <mxGeometry x="200" y="30" width="440" height="30" as="geometry" />
        </mxCell>
        <mxCell id="Li19kPZ4yMoS6sR5QcYd-2" value="&lt;font style=&quot;font-size: 19px;&quot;&gt;App&lt;/font&gt;" style="rounded=0;whiteSpace=wrap;html=1;" vertex="1" parent="1">
          <mxGeometry x="350" y="120" width="120" height="60" as="geometry" />
        </mxCell>
        <mxCell id="Li19kPZ4yMoS6sR5QcYd-3" value="" style="endArrow=classic;html=1;rounded=0;exitX=0.5;exitY=1;exitDx=0;exitDy=0;" edge="1" parent="1" source="Li19kPZ4yMoS6sR5QcYd-2">
          <mxGeometry width="50" height="50" relative="1" as="geometry">
            <mxPoint x="400" y="390" as="sourcePoint" />
            <mxPoint x="410" y="240" as="targetPoint" />
          </mxGeometry>
        </mxCell>
        <mxCell id="Li19kPZ4yMoS6sR5QcYd-21" style="edgeStyle=orthogonalEdgeStyle;rounded=0;orthogonalLoop=1;jettySize=auto;html=1;exitX=0.5;exitY=1;exitDx=0;exitDy=0;entryX=0.5;entryY=0;entryDx=0;entryDy=0;" edge="1" parent="1" source="Li19kPZ4yMoS6sR5QcYd-4" target="Li19kPZ4yMoS6sR5QcYd-20">
          <mxGeometry relative="1" as="geometry" />
        </mxCell>
        <mxCell id="Li19kPZ4yMoS6sR5QcYd-4" value="Lights Out Game" style="rounded=0;whiteSpace=wrap;html=1;" vertex="1" parent="1">
          <mxGeometry x="350" y="240" width="120" height="60" as="geometry" />
        </mxCell>
        <mxCell id="Li19kPZ4yMoS6sR5QcYd-5" value="Logical, holds state" style="text;html=1;strokeColor=none;fillColor=none;align=center;verticalAlign=middle;whiteSpace=wrap;rounded=0;" vertex="1" parent="1">
          <mxGeometry x="465" y="230" width="130" height="30" as="geometry" />
        </mxCell>
        <mxCell id="Li19kPZ4yMoS6sR5QcYd-8" value="Light" style="rounded=0;whiteSpace=wrap;html=1;" vertex="1" parent="1">
          <mxGeometry x="295" y="470" width="50" height="30" as="geometry" />
        </mxCell>
        <mxCell id="Li19kPZ4yMoS6sR5QcYd-9" value="Light" style="rounded=0;whiteSpace=wrap;html=1;" vertex="1" parent="1">
          <mxGeometry x="355" y="470" width="50" height="30" as="geometry" />
        </mxCell>
        <mxCell id="Li19kPZ4yMoS6sR5QcYd-10" value="Light" style="rounded=0;whiteSpace=wrap;html=1;" vertex="1" parent="1">
          <mxGeometry x="415" y="470" width="50" height="30" as="geometry" />
        </mxCell>
        <mxCell id="Li19kPZ4yMoS6sR5QcYd-11" value="Light" style="rounded=0;whiteSpace=wrap;html=1;" vertex="1" parent="1">
          <mxGeometry x="475" y="470" width="50" height="30" as="geometry" />
        </mxCell>
        <mxCell id="Li19kPZ4yMoS6sR5QcYd-12" value="Light" style="rounded=0;whiteSpace=wrap;html=1;" vertex="1" parent="1">
          <mxGeometry x="295" y="510" width="50" height="30" as="geometry" />
        </mxCell>
        <mxCell id="Li19kPZ4yMoS6sR5QcYd-13" value="Light" style="rounded=0;whiteSpace=wrap;html=1;" vertex="1" parent="1">
          <mxGeometry x="355" y="510" width="50" height="30" as="geometry" />
        </mxCell>
        <mxCell id="Li19kPZ4yMoS6sR5QcYd-14" value="Light" style="rounded=0;whiteSpace=wrap;html=1;" vertex="1" parent="1">
          <mxGeometry x="415" y="510" width="50" height="30" as="geometry" />
        </mxCell>
        <mxCell id="Li19kPZ4yMoS6sR5QcYd-15" value="Light" style="rounded=0;whiteSpace=wrap;html=1;" vertex="1" parent="1">
          <mxGeometry x="475" y="510" width="50" height="30" as="geometry" />
        </mxCell>
        <mxCell id="Li19kPZ4yMoS6sR5QcYd-16" value="Light" style="rounded=0;whiteSpace=wrap;html=1;" vertex="1" parent="1">
          <mxGeometry x="295" y="550" width="50" height="30" as="geometry" />
        </mxCell>
        <mxCell id="Li19kPZ4yMoS6sR5QcYd-17" value="Light" style="rounded=0;whiteSpace=wrap;html=1;" vertex="1" parent="1">
          <mxGeometry x="355" y="550" width="50" height="30" as="geometry" />
        </mxCell>
        <mxCell id="Li19kPZ4yMoS6sR5QcYd-18" value="Light" style="rounded=0;whiteSpace=wrap;html=1;" vertex="1" parent="1">
          <mxGeometry x="415" y="550" width="50" height="30" as="geometry" />
        </mxCell>
        <mxCell id="Li19kPZ4yMoS6sR5QcYd-19" value="Light" style="rounded=0;whiteSpace=wrap;html=1;" vertex="1" parent="1">
          <mxGeometry x="475" y="550" width="50" height="30" as="geometry" />
        </mxCell>
        <mxCell id="Li19kPZ4yMoS6sR5QcYd-22" style="edgeStyle=orthogonalEdgeStyle;rounded=0;orthogonalLoop=1;jettySize=auto;html=1;exitX=0.5;exitY=1;exitDx=0;exitDy=0;" edge="1" parent="1" source="Li19kPZ4yMoS6sR5QcYd-20" target="Li19kPZ4yMoS6sR5QcYd-8">
          <mxGeometry relative="1" as="geometry" />
        </mxCell>
        <mxCell id="Li19kPZ4yMoS6sR5QcYd-23" style="edgeStyle=orthogonalEdgeStyle;rounded=0;orthogonalLoop=1;jettySize=auto;html=1;entryX=0.5;entryY=0;entryDx=0;entryDy=0;" edge="1" parent="1" source="Li19kPZ4yMoS6sR5QcYd-20" target="Li19kPZ4yMoS6sR5QcYd-9">
          <mxGeometry relative="1" as="geometry" />
        </mxCell>
        <mxCell id="Li19kPZ4yMoS6sR5QcYd-24" style="edgeStyle=orthogonalEdgeStyle;rounded=0;orthogonalLoop=1;jettySize=auto;html=1;entryX=0.5;entryY=0;entryDx=0;entryDy=0;" edge="1" parent="1" source="Li19kPZ4yMoS6sR5QcYd-20" target="Li19kPZ4yMoS6sR5QcYd-10">
          <mxGeometry relative="1" as="geometry">
            <Array as="points">
              <mxPoint x="410" y="430" />
              <mxPoint x="440" y="430" />
            </Array>
          </mxGeometry>
        </mxCell>
        <mxCell id="Li19kPZ4yMoS6sR5QcYd-25" style="edgeStyle=orthogonalEdgeStyle;rounded=0;orthogonalLoop=1;jettySize=auto;html=1;entryX=0.5;entryY=0;entryDx=0;entryDy=0;" edge="1" parent="1" source="Li19kPZ4yMoS6sR5QcYd-20" target="Li19kPZ4yMoS6sR5QcYd-11">
          <mxGeometry relative="1" as="geometry" />
        </mxCell>
        <mxCell id="Li19kPZ4yMoS6sR5QcYd-20" value="LightGrid" style="rounded=0;whiteSpace=wrap;html=1;" vertex="1" parent="1">
          <mxGeometry x="350" y="330" width="120" height="80" as="geometry" />
        </mxCell>
        <mxCell id="Li19kPZ4yMoS6sR5QcYd-26" value="&lt;font style=&quot;font-size: 15px;&quot;&gt;Props:&lt;br&gt;- on/off&lt;br&gt;-coords []&lt;br&gt;- toggleLight&lt;/font&gt;" style="text;html=1;strokeColor=none;fillColor=none;align=center;verticalAlign=middle;whiteSpace=wrap;rounded=0;" vertex="1" parent="1">
          <mxGeometry x="160" y="510" width="100" height="40" as="geometry" />
        </mxCell>
        <mxCell id="Li19kPZ4yMoS6sR5QcYd-28" value="&lt;font style=&quot;font-size: 14px;&quot;&gt;Props:&lt;br&gt;- grid dimensions&lt;br&gt;- toggleLight&lt;/font&gt;" style="text;html=1;strokeColor=none;fillColor=none;align=center;verticalAlign=middle;whiteSpace=wrap;rounded=0;" vertex="1" parent="1">
          <mxGeometry x="135" y="325" width="150" height="90" as="geometry" />
        </mxCell>
        <mxCell id="Li19kPZ4yMoS6sR5QcYd-29" value="&lt;font style=&quot;font-size: 14px;&quot;&gt;const [lights, setLights] = useState( [ [0,1,0, 1]&lt;br&gt;&lt;span style=&quot;white-space: pre;&quot;&gt;&#x9;&lt;/span&gt;&lt;span style=&quot;white-space: pre;&quot;&gt;&#x9;&lt;/span&gt;&lt;span style=&quot;white-space: pre;&quot;&gt;&#x9;&lt;/span&gt;&lt;span style=&quot;white-space: pre;&quot;&gt;&#x9;&lt;/span&gt;&lt;span style=&quot;white-space: pre;&quot;&gt;&#x9;&lt;/span&gt;&lt;span style=&quot;white-space: pre;&quot;&gt;&#x9;&lt;/span&gt;&lt;span style=&quot;white-space: pre;&quot;&gt;&#x9;&lt;/span&gt;&amp;nbsp; &amp;nbsp; &amp;nbsp; &amp;nbsp; [1,0,0,1] ] )&lt;/font&gt;" style="text;html=1;strokeColor=none;fillColor=none;align=center;verticalAlign=middle;whiteSpace=wrap;rounded=0;" vertex="1" parent="1">
          <mxGeometry x="475" y="270" width="345" height="30" as="geometry" />
        </mxCell>
        <mxCell id="Li19kPZ4yMoS6sR5QcYd-30" value="Props:&lt;br&gt;- grid dimensions&lt;br&gt;-&amp;nbsp;" style="text;html=1;strokeColor=none;fillColor=none;align=center;verticalAlign=middle;whiteSpace=wrap;rounded=0;" vertex="1" parent="1">
          <mxGeometry x="200" y="250" width="120" height="30" as="geometry" />
        </mxCell>
        <mxCell id="Li19kPZ4yMoS6sR5QcYd-32" value="function toggleLight(coords) {&lt;br&gt;&lt;span style=&quot;white-space: pre;&quot;&gt;&#x9;&lt;/span&gt;setLights( currLights =&amp;gt; &lt;span style=&quot;white-space: pre;&quot;&gt;&#x9;&lt;/span&gt;currLights.map(row =&amp;gt; {&lt;br&gt;row.forEach()&amp;nbsp;&amp;nbsp;" style="text;html=1;strokeColor=none;fillColor=none;align=center;verticalAlign=middle;whiteSpace=wrap;rounded=0;" vertex="1" parent="1">
          <mxGeometry x="510" y="90" width="200" height="120" as="geometry" />
        </mxCell>
      </root>
    </mxGraphModel>
  </diagram>
</mxfile>
